<svg id="Calque_1" data-name="Calque 1" xmlns="http://www.w3.org/2000/svg" width="44.88" height="36.81" viewBox="0 0 44.88 36.81"><path d="M-40.47,76.88V59.82a.25.25,0,0,0-.25-.24H-54.13a1.59,1.59,0,0,0-1.59,1.59v17a.57.57,0,0,0,0,.13,1.58,1.58,0,0,0,1.58,1.46h13.41a.23.23,0,0,0,.22-.14.25.25,0,0,0,0-.26,2,2,0,0,1,0-2.31A.33.33,0,0,0-40.47,76.88ZM-54.13,60.07H-41V76.63H-54.13a1.61,1.61,0,0,0-1.1.45V61.17A1.1,1.1,0,0,1-54.13,60.07Zm0,19.16a1.11,1.11,0,0,1-1.1-1,1.11,1.11,0,0,1,1.1-1.06h13a2.53,2.53,0,0,0,0,2.11Zm5.38-1.5h-4.84a.24.24,0,0,0-.24.24.25.25,0,0,0,.24.25h4.84A.25.25,0,0,0-48.5,78,.25.25,0,0,0-48.75,77.73Zm4.08,0h-2.84a.24.24,0,0,0-.24.24.25.25,0,0,0,.24.25h2.84a.25.25,0,0,0,.24-.25A.24.24,0,0,0-44.67,77.73Zm-7.11-8.89v2a.24.24,0,0,0,.24.24h6.22a.24.24,0,0,0,.25-.24v-2A3.45,3.45,0,0,0-42,65.59a3.11,3.11,0,0,0-3.23-3.35,4,4,0,0,0-2,.47,3,3,0,0,0-1.93-.6,2.75,2.75,0,0,0-2.42,1.55,2.55,2.55,0,0,0-2.54,2.57A2.59,2.59,0,0,0-51.78,68.84Zm6.22,1.77h-5.73V68.86h5.73Zm-5.83-6.46a.24.24,0,0,0,.22-.15,2.36,2.36,0,0,1,2-1.4,2.26,2.26,0,0,1,1.71.57.24.24,0,0,0,.33,0,3.41,3.41,0,0,1,1.85-.48,2.62,2.62,0,0,1,2.74,2.86,2.94,2.94,0,0,1-2.38,2.74,2.86,2.86,0,0,0,1.15-1.67.25.25,0,0,0-.18-.3.25.25,0,0,0-.29.19,2.48,2.48,0,0,1-2,1.82h-3.25a1.38,1.38,0,0,1-1-1.24.24.24,0,0,0-.24-.24.25.25,0,0,0-.25.24,2,2,0,0,0,.55,1.24h-.19A2.09,2.09,0,0,1-51.85,67a.24.24,0,0,0-.24-.24.25.25,0,0,0-.25.24,2.18,2.18,0,0,0,.81,1.36h0a2.14,2.14,0,0,1-2.06-2.14C-53.6,64.22-51.48,64.15-51.39,64.15ZM-45.93,68a.2.2,0,0,0,.11,0,1.55,1.55,0,0,0,.75-1.13.25.25,0,0,0-.24-.25h0a.24.24,0,0,0-.24.24,1.17,1.17,0,0,1-.49.72.24.24,0,0,0-.1.33A.25.25,0,0,0-45.93,68Zm1.87,4.49a.6.6,0,0,0-.75,0,.25.25,0,0,0,0,.35.25.25,0,0,0,.35,0s.07-.05.14,0a.39.39,0,0,1,.1.44.44.44,0,0,1-.35.25c-.28,0-.59-.16-.88-.55a1.49,1.49,0,0,0-1.17-.66,2.25,2.25,0,0,0-1.55.71,2.26,2.26,0,0,0-1.56-.71,1.47,1.47,0,0,0-1.16.66c-.29.39-.61.59-.88.55a.42.42,0,0,1-.35-.25.36.36,0,0,1,.1-.44.1.1,0,0,1,.14,0,.24.24,0,0,0,.34,0,.25.25,0,0,0,0-.35.59.59,0,0,0-.74,0,.88.88,0,0,0-.27,1,.94.94,0,0,0,.74.56,1.47,1.47,0,0,0,1.34-.75,1,1,0,0,1,.79-.46,1.94,1.94,0,0,1,1.34.72.21.21,0,0,0,.18.09h0a.25.25,0,0,0,.19-.09,1.92,1.92,0,0,1,1.34-.72,1,1,0,0,1,.78.46,1.56,1.56,0,0,0,1.21.76h.13a.93.93,0,0,0,.74-.56A.88.88,0,0,0-44.06,72.5Z" transform="translate(69.04 -43.97)" style="fill:#fff"/><path d="M-59.95,80.56h-.29a.92.92,0,0,1-.87-1l.32-9.23a11.1,11.1,0,0,1-1.14-4.79A10,10,0,0,1-59.5,59a.25.25,0,0,1,.27-.06.25.25,0,0,1,.15.23V79.6A.92.92,0,0,1-59.95,80.56Zm.38-20.73a9.92,9.92,0,0,0-1.87,5.75,10.66,10.66,0,0,0,1.11,4.63.21.21,0,0,1,0,.12l-.33,9.27a.44.44,0,0,0,.39.47H-60a.44.44,0,0,0,.39-.47V59.83Z" transform="translate(69.04 -43.97)" style="fill:#fff"/><path d="M-33.45,59.37a.25.25,0,0,0-.25-.24.24.24,0,0,0-.24.24v4.21H-35.2V59.37a.24.24,0,0,0-.24-.24.25.25,0,0,0-.25.24v4.21h-1.25V59.37a.25.25,0,0,0-.25-.24.24.24,0,0,0-.24.24v4.45h0a2.71,2.71,0,0,0,.89,2.28h0a1.63,1.63,0,0,1,.35,1l-.27,12.74a.94.94,0,0,0,.88,1h.29a.93.93,0,0,0,.87-1l-.26-12.72a1.59,1.59,0,0,1,.33-1,2.83,2.83,0,0,0,.9-2.28Zm-1.46,20.44a.44.44,0,0,1-.38.48h-.29a.45.45,0,0,1-.39-.47l.27-12.74a2,2,0,0,0-.12-.68,1.58,1.58,0,0,0,.38,0,1.53,1.53,0,0,0,.38,0,2.38,2.38,0,0,0-.11.7ZM-35.44,66c-1.2,0-1.45-1.17-1.5-1.88h3C-34,64.72-34.23,66-35.44,66Z" transform="translate(69.04 -43.97)" style="fill:#fff"/><path d="M-64.87,58.5c-3.07,0-4.17-1.84-4.17-4.21,0-.25,0-.49,0-.75.37-4.26,4-9.57,8-9.57a2.5,2.5,0,0,1,2.38,2.66c0,.1,0,.2,0,.29-.21,2.39-2.11,4.35-3,4.35-.69,0-1.49-.63-1.49-1s.25-.34.52-.44a4.49,4.49,0,0,0,3-4.12s0-.06,0-.09c0-.38-.21-.52-.61-.52-2.84,0-6.73,5.07-7.12,9.5,0,.24,0,.49,0,.72,0,1.34.46,2.2,2.13,2.2,1.49,0,4.82-2.11,5.9-4.15a.45.45,0,0,1,.41-.24c.27,0,.37.29.24.55C-60,56.23-63.12,58.5-64.87,58.5Z" transform="translate(69.04 -43.97)" style="fill:#fff"/><path d="M-52.48,53.14a.28.28,0,0,1,.29.3.73.73,0,0,1,0,.25,2.88,2.88,0,0,1-2.45,1.6A3.41,3.41,0,0,1-57.52,57a2,2,0,0,1-2.21-2.05,6,6,0,0,1,.81-2.72c.25-.52.34-.54.67-.54h0a2.67,2.67,0,0,1,2.45-2c1.8,0,2.25,1,2.25,2.25a8.07,8.07,0,0,1-.7,2.42,1.6,1.6,0,0,0,1.33-1A.38.38,0,0,1-52.48,53.14ZM-58,54a2.75,2.75,0,0,0-.08.65c0,.73.27,1.48.63,1.48a1.28,1.28,0,0,0,1.06-.86A1.73,1.73,0,0,1-58,54Zm.7-1.6a1.83,1.83,0,0,0,1.51,1.86,7.65,7.65,0,0,0,.6-2.46c0-.78-.07-1.44-.67-1.44C-56.84,50.35-57.26,51.69-57.26,52.39Z" transform="translate(69.04 -43.97)" style="fill:#fff"/><path d="M-46,53.14a.28.28,0,0,1,.3.3.74.74,0,0,1-.05.25,2.87,2.87,0,0,1-2.45,1.6A3.41,3.41,0,0,1-51,57a2,2,0,0,1-2.21-2.05,5.83,5.83,0,0,1,.82-2.72c.24-.52.34-.54.66-.54h0a2.67,2.67,0,0,1,2.45-2c1.8,0,2.25,1,2.25,2.25a8.35,8.35,0,0,1-.69,2.42,1.63,1.63,0,0,0,1.33-1C-46.25,53.14-46.1,53.14-46,53.14Zm-5.48.85a2.75,2.75,0,0,0-.08.65c0,.73.28,1.48.63,1.48a1.26,1.26,0,0,0,1.06-.86A1.74,1.74,0,0,1-51.44,54Zm.7-1.6a1.83,1.83,0,0,0,1.51,1.86,7.65,7.65,0,0,0,.6-2.46c0-.78-.07-1.44-.67-1.44C-50.32,50.35-50.74,51.69-50.74,52.39Z" transform="translate(69.04 -43.97)" style="fill:#fff"/><path d="M-40.16,53.14a.27.27,0,0,1,.29.3.74.74,0,0,1-.05.25c-1.07,2.09-2.3,3.37-3.21,3.37s-1.43-1.44-1.88-2.3a8.92,8.92,0,0,0-.33,1.59c0,.42,0,.68-.53.68A1.1,1.1,0,0,1-47,56c0-1.25,1.83-6.65,3.59-10.33.16-.34.24-.6.58-.6a1.08,1.08,0,0,1,1,.91.6.6,0,0,1,0,.3,31.88,31.88,0,0,0-2.17,5.13c.61-.73,1.86-1.85,2.51-1.85a1.1,1.1,0,0,1,1,1c0,1.6-1.62,2.69-3.36,3.31.62.91.8,1.77,1.3,1.77s1.48-1.19,2.06-2.29A.47.47,0,0,1-40.16,53.14Zm-1.54-2.28a.17.17,0,0,0-.18-.19c-.44,0-2,1.65-2.55,2.55A7.67,7.67,0,0,0-41.7,50.86Z" transform="translate(69.04 -43.97)" style="fill:#fff"/><path d="M-36.85,53.14a.3.3,0,0,1,.31.3.51.51,0,0,1-.09.25c-1.07,2.09-2.28,3.37-3.19,3.37-.67,0-1.45-.55-1.45-1.05,0-1.09,1.29-4.32,1.9-5.81.15-.34.26-.6.6-.6a1.08,1.08,0,0,1,1,.92.94.94,0,0,1-.06.3,31.91,31.91,0,0,0-1.59,4.67v0c0,.13.06.15.11.15.6,0,1.62-1.5,2-2.29A.49.49,0,0,1-36.85,53.14Zm.32-5.94c0,.6-.5,1.95-1.07,1.95s-1.13-.15-1.13-.72a8.63,8.63,0,0,1,.29-1.26c.11-.64.45-.77.74-.77S-36.53,46.57-36.53,47.2Z" transform="translate(69.04 -43.97)" style="fill:#fff"/><path d="M-30.17,53.14a.29.29,0,0,1,.31.3.49.49,0,0,1-.08.25c-1.06,2.09-2.32,3.37-3.23,3.37-.67,0-1.44-.55-1.44-1.05a25.51,25.51,0,0,1,1.33-4.58,18.67,18.67,0,0,0-3,5c0,.39,0,.65-.38.65A1.26,1.26,0,0,1-38,56c0-1.1,1.25-4.33,1.88-5.82.15-.34.25-.6.59-.6a1.09,1.09,0,0,1,1,.92.6.6,0,0,1-.07.3c-.26.63-.52,1.31-.76,2.09a15.44,15.44,0,0,1,3-3.67c.12-.09.2-.21.39-.21s1,.39,1,.93a.94.94,0,0,1-.06.29,39.27,39.27,0,0,0-1.72,5.24v0c0,.13.06.15.11.15.6,0,1.66-1.5,2.08-2.29A.51.51,0,0,1-30.17,53.14Z" transform="translate(69.04 -43.97)" style="fill:#fff"/><path d="M-25.16,49.6a1.08,1.08,0,0,1,1,.92.94.94,0,0,1-.06.3,40.93,40.93,0,0,0-1.83,5.38c-1,4.43-1.5,6.39-4.14,6.39-.81,0-1.64-.71-1.64-1.2,0-.19.05-.36.31-.36s.26.38.88.38c2.12,0,2.49-3.67,3.11-6-.57.84-1.23,1.54-1.82,1.54-1,0-1.54-.91-1.54-2.05,0-2.46,2.39-5.3,3.85-5.3a1.69,1.69,0,0,1,1.29.62C-25.61,49.86-25.51,49.6-25.16,49.6Zm-1.49,1c-.7,0-2.63,2.68-2.63,4.46,0,.44,0,.73.2.73.57,0,2.29-3.08,2.8-4.2A2.53,2.53,0,0,0-26,51,.77.77,0,0,0-26.65,50.57Z" transform="translate(69.04 -43.97)" style="fill:#fff"/></svg>