<svg xmlns="http://www.w3.org/2000/svg" width="100%" height="100%" fill="currentColor" viewBox="0 0 16 16"><path d="M8.5 5.3c0-.3-.2-.5-.5-.5s-.5.2-.5.5v3H4.4c-.3 0-.5.2-.5.5s.2.5.5.5H8c.3 0 .5-.2.5-.5V5.3z"/><path d="M6.5.5c0-.3.2-.5.5-.5h2c.3 0 .5.2.5.5S9.3 1 9 1v.6c1.4.2 2.7.8 3.7 1.7l.4-.4-.4-.4c-.2-.2-.2-.5 0-.7.2-.2.5-.2.7 0l1.5 1.5c.2.2.2.5 0 .7-.2.2-.5.2-.7 0l-.4-.4-.3.4c2.6 3 2.3 7.6-.7 10.2s-7.6 2.3-10.2-.7-2.3-7.6.7-10.2c1-.9 2.3-1.5 3.7-1.7V1c-.3 0-.5-.2-.5-.5zM8 2.6c-3.4 0-6.2 2.8-6.2 6.2C1.8 12.2 4.6 15 8 15s6.2-2.8 6.2-6.2c0-3.4-2.8-6.2-6.2-6.2z"/></svg>
