<?xml version="1.0" encoding="utf-8"?>
<!-- Generator: Adobe Illustrator 25.0.1, SVG Export Plug-In . SVG Version: 6.00 Build 0)  -->
<svg version="1.1" id="Calque_1" xmlns="http://www.w3.org/2000/svg" xmlns:xlink="http://www.w3.org/1999/xlink" x="0px" y="0px"
	 viewBox="0 0 44.9 18.6" style="enable-background:new 0 0 44.9 18.6;" xml:space="preserve">
<style type="text/css">
	.st0{fill:#FFFFFF;}
</style>
<path class="st0" d="M4.2,14.5c-3.1,0-4.2-1.8-4.2-4.2c0-0.2,0-0.5,0-0.8C0.4,5.3,4,0,8,0c1.4,0.1,2.4,1.2,2.4,2.6c0,0,0,0,0,0
	c0,0.1,0,0.2,0,0.3c-0.2,2.4-2.1,4.3-3,4.3c-0.7,0-1.5-0.6-1.5-1S6.1,6,6.4,5.9c1.8-0.6,3-2.3,3-4.1c0,0,0-0.1,0-0.1
	c0-0.4-0.2-0.5-0.6-0.5c-2.8,0-6.7,5.1-7.1,9.5c0,0.2,0,0.5,0,0.7c0,1.3,0.5,2.2,2.1,2.2c1.5,0,4.8-2.1,5.9-4.2
	c0.1-0.2,0.2-0.2,0.4-0.2c0.3,0,0.4,0.3,0.2,0.5C9,12.3,5.9,14.5,4.2,14.5z"/>
<path class="st0" d="M16.6,9.2c0.2,0,0.3,0.1,0.3,0.3c0,0,0,0,0,0c0,0.1,0,0.2,0,0.2c-0.5,0.9-1.4,1.6-2.5,1.6
	c-0.6,1-1.7,1.7-2.9,1.7c-1.1,0.1-2.1-0.7-2.2-1.8c0-0.1,0-0.2,0-0.3c0-1,0.3-1.9,0.8-2.7c0.2-0.5,0.3-0.5,0.7-0.5l0,0
	c0.3-1.1,1.3-1.9,2.5-2c1.8,0,2.2,1,2.2,2.2c-0.1,0.8-0.3,1.7-0.7,2.4c0.6-0.1,1.1-0.4,1.3-1C16.2,9.2,16.4,9.1,16.6,9.2z M11,10
	C11,10.2,11,10.5,11,10.7c0,0.7,0.3,1.5,0.6,1.5c0.5-0.1,0.9-0.4,1.1-0.9C11.9,11.3,11.2,10.8,11,10z M11.7,8.4
	c0,0.9,0.6,1.7,1.5,1.9c0.3-0.8,0.5-1.6,0.6-2.5c0-0.8-0.1-1.4-0.7-1.4C12.2,6.4,11.8,7.7,11.7,8.4L11.7,8.4z"/>
<path class="st0" d="M23,9.2c0.2,0,0.3,0.1,0.3,0.3c0,0,0,0,0,0c0,0.1,0,0.2,0,0.2c-0.5,0.9-1.4,1.6-2.5,1.6c-0.6,1-1.6,1.7-2.8,1.7
	c-1.1,0.1-2.1-0.7-2.2-1.8c0-0.1,0-0.2,0-0.3c0-1,0.3-1.9,0.8-2.7c0.2-0.5,0.3-0.5,0.7-0.5l0,0c0.3-1.1,1.3-1.9,2.5-2
	c1.8,0,2.2,1,2.2,2.2c-0.1,0.8-0.3,1.7-0.7,2.4c0.6-0.1,1.1-0.4,1.3-1C22.8,9.2,22.9,9.2,23,9.2z M17.6,10c-0.1,0.2-0.1,0.4-0.1,0.7
	c0,0.7,0.3,1.5,0.6,1.5c0.5-0.1,0.9-0.4,1.1-0.9C18.4,11.2,17.8,10.7,17.6,10L17.6,10z M18.3,8.4c0,0.9,0.6,1.7,1.5,1.9
	c0.3-0.8,0.5-1.6,0.6-2.5c0-0.8-0.1-1.4-0.7-1.4C18.7,6.4,18.3,7.7,18.3,8.4L18.3,8.4z"/>
<path class="st0" d="M28.9,9.2c0.1,0,0.3,0.1,0.3,0.2c0,0,0,0,0,0.1c0,0.1,0,0.2,0,0.2c-1.1,2.1-2.3,3.4-3.2,3.4s-1.4-1.4-1.9-2.3
	c-0.2,0.5-0.3,1.1-0.3,1.6c0,0.4,0,0.7-0.5,0.7c-0.6,0-1.1-0.4-1.1-1c0-1.2,1.8-6.7,3.6-10.3c0.2-0.3,0.2-0.6,0.6-0.6
	c0.5,0,0.9,0.4,1,0.9c0,0.1,0,0.2,0,0.3C26.3,4,25.6,5.7,25,7.4c0.6-0.7,1.9-1.8,2.5-1.8c0.5,0,1,0.5,1,1c0,1.6-1.6,2.7-3.4,3.3
	c0.6,0.9,0.8,1.8,1.3,1.8s1.5-1.2,2.1-2.3C28.6,9.3,28.7,9.2,28.9,9.2z M27.3,6.9c0-0.1-0.1-0.2-0.1-0.2c0,0,0,0,0,0
	c-0.4,0-2,1.7-2.5,2.5C25.7,8.7,26.6,7.9,27.3,6.9z"/>
<path class="st0" d="M32.2,9.2c0.2,0,0.3,0.1,0.3,0.3c0,0,0,0,0,0c0,0.1,0,0.2-0.1,0.2c-1.1,2.1-2.3,3.4-3.2,3.4
	c-0.7,0-1.5-0.5-1.5-1c0-1.1,1.3-4.3,1.9-5.8c0.2-0.3,0.3-0.6,0.6-0.6c0.5,0,0.9,0.4,1,0.9c0,0.1,0,0.2-0.1,0.3
	c-0.6,1.5-1.2,3.1-1.6,4.7l0,0c0,0.1,0.1,0.2,0.1,0.2c0.6,0,1.6-1.5,2-2.3C31.8,9.2,32,9.1,32.2,9.2z M32.5,3.2c0,0.6-0.5,2-1.1,2
	S30.3,5,30.3,4.5c0.1-0.4,0.2-0.8,0.3-1.3c0.1-0.6,0.5-0.8,0.7-0.8S32.5,2.6,32.5,3.2z"/>
<path class="st0" d="M38.9,9.2c0.2,0,0.3,0.1,0.3,0.3c0,0,0,0,0,0c0,0.1,0,0.2-0.1,0.2c-1.1,2.1-2.3,3.4-3.2,3.4
	c-0.7,0-1.4-0.5-1.4-1c0.3-1.6,0.7-3.1,1.3-4.6c-1.3,1.5-2.3,3.2-3,5c0,0.4,0,0.7-0.4,0.7c-0.7,0-1.2-0.4-1.3-1.1
	c0-1.1,1.2-4.3,1.9-5.8c0.2-0.3,0.2-0.6,0.6-0.6c0.5,0,0.9,0.4,1,0.9c0,0.1,0,0.2-0.1,0.3c-0.3,0.6-0.5,1.3-0.8,2.1
	c0.8-1.4,1.8-2.6,3-3.7C36.8,5.2,36.9,5,37.1,5s1,0.4,1,0.9c0,0.1,0,0.2-0.1,0.3c-0.7,1.7-1.3,3.5-1.7,5.2l0,0
	c0,0.1,0.1,0.2,0.1,0.2c0.6,0,1.7-1.5,2.1-2.3C38.6,9.2,38.7,9.2,38.9,9.2z"/>
<path class="st0" d="M43.9,5.6c0.5,0,0.9,0.4,1,0.9c0,0.1,0,0.2-0.1,0.3c-0.7,1.7-1.3,3.5-1.8,5.4c-1,4.4-1.5,6.4-4.1,6.4
	c-0.8,0-1.6-0.7-1.6-1.2c0-0.2,0-0.4,0.3-0.4c0.3,0,0.3,0.4,0.9,0.4c2.1,0,2.5-3.7,3.1-6c-0.6,0.8-1.2,1.5-1.8,1.5
	c-1,0-1.5-0.9-1.5-2c0-2.5,2.4-5.3,3.8-5.3c0.5,0,1,0.2,1.3,0.6C43.4,5.9,43.5,5.6,43.9,5.6z M42.4,6.6c-0.7,0-2.6,2.7-2.6,4.5
	c0,0.4,0,0.7,0.2,0.7c0.6,0,2.3-3.1,2.8-4.2C42.9,7.4,43,7.2,43,7C42.9,6.8,42.7,6.6,42.4,6.6L42.4,6.6z"/>
</svg>
