<svg xmlns="http://www.w3.org/2000/svg" width="100%" height="100%" fill="currentColor" viewBox="0 0 16 16"><path d="M4.4 7.6c0-.2-.1-.4-.3-.4-.2 0-.4.1-.4.3v.1c0 1 1.1 2.3 1.2 2.4.1.2.4.2.5.1s.2-.4.1-.5c-.5-.5-1.1-1.5-1.1-2zM12 7.2c-.2 0-.4.2-.4.4 0 .5-.6 1.5-1 2-.1.2-.1.4.1.5.1.1.4.1.5 0 .1-.1 1.2-1.5 1.2-2.4 0-.3-.2-.5-.4-.5zM8 7.2c-.2 0-.4.2-.4.4v2.2c0 .2.2.4.4.3.2 0 .3-.2.3-.3V7.6c.1-.2-.1-.4-.3-.4z"/><path d="M12 1.5c-.2 0-.5 0-.7.1C9.7-.3 7-.5 5.2 1.1c-.2.1-.4.3-.5.4H4c-2.2 0-4 1.8-4 4C0 7 .8 8.3 2.2 9v5.5c0 .8.7 1.5 1.5 1.5h8.6c.8 0 1.5-.7 1.5-1.5V9c2-1 2.7-3.4 1.7-5.4-.7-1.3-2-2.1-3.5-2.1zm1.1 13c0 .4-.3.8-.8.8H3.7c-.2 0-.4-.1-.5-.2-.1-.1-.2-.3-.2-.5v-1.4h10.1v1.3zm.2-6.1c0 .1-.1.1 0 0-.1.1-.1.1-.2.1 0 0 0 .1-.1.1v3.7H2.9V8.8v-.1c0-.1 0-.1-.1-.2l-.1-.1h-.1C1 7.7.3 5.8 1 4.2c.5-1.2 1.7-2 3-2h.2c-.4.7-.6 1.4-.6 2.2 0 .2.2.3.4.3s.3-.2.3-.3c0-2 1.5-3.7 3.5-3.7s3.7 1.5 3.7 3.5v.2c0 .2.2.4.4.4s.4-.2.4-.4c0-.8-.2-1.5-.6-2.2h.2c1.8 0 3.3 1.5 3.3 3.3 0 1.3-.7 2.4-1.9 2.9z"/></svg>
