<svg xmlns="http://www.w3.org/2000/svg" width="100%" height="100%" fill="currentColor" viewBox="0 0 16 16"><path d="M.4.9C.2.9 0 1 0 1.2s.2.4.4.4h2.2l1.9 8.9c0 .2.2.4.4.4h8.9c.2 0 .4-.2.4-.4s-.2-.4-.4-.4H5.1l-.3-1.4h9.6c.2 0 .3-.1.3-.3L16 3.1c.1-.2-.1-.4-.3-.4H3.5l-.3-1.5c0-.2-.2-.3-.4-.3H.4zm3.3 2.5h11.5L14.1 8H4.6l-.9-4.6zm2.9 8.5c-.9 0-1.6.7-1.6 1.6s.7 1.6 1.6 1.6 1.6-.7 1.6-1.6-.7-1.6-1.6-1.6zm5.3 0c-.9 0-1.6.7-1.6 1.6s.7 1.6 1.6 1.6c.9 0 1.6-.7 1.6-1.6s-.7-1.6-1.6-1.6zm-5.3.7c.5 0 .9.4.9.9s-.4.9-.9.9-.9-.4-.9-.9.4-.9.9-.9zm5.3 0c.5 0 .9.4.9.9s-.4.9-.9.9-.9-.4-.9-.9.4-.9.9-.9z"/></svg>
